<svg xmlns="http://www.w3.org/2000/svg" viewBox="0 0 512 512">
  <defs>
    <linearGradient id="bg" x1="0" y1="0" x2="1" y2="1">
      <stop offset="0" stop-color="#1b315d"/>
      <stop offset="1" stop-color="#080d18"/>
    </linearGradient>
    <linearGradient id="cube" x1="0" y1="0" x2="1" y2="1">
      <stop offset="0" stop-color="#fffdf5"/>
      <stop offset="1" stop-color="#e8dfc9"/>
    </linearGradient>
  </defs>
  <rect width="512" height="512" rx="112" fill="url(#bg)"/>
  <circle cx="410" cy="92" r="34" fill="#ffd84d" opacity=".95"/>
  <path d="M72 380h368" stroke="#ff6c55" stroke-width="34" stroke-linecap="round" opacity=".9"/>
  <path d="M70 418h372" stroke="#d94c3c" stroke-width="22" stroke-linecap="round" opacity=".9"/>
  <g transform="translate(126 112) rotate(-5 130 130)">
    <rect x="34" y="26" width="240" height="240" rx="62" fill="url(#cube)" stroke="#fff" stroke-width="12"/>
    <circle cx="116" cy="128" r="15" fill="#20242d"/>
    <circle cx="193" cy="128" r="15" fill="#20242d"/>
    <path d="M117 184c21 24 58 24 79 0" fill="none" stroke="#20242d" stroke-width="13" stroke-linecap="round"/>
    <path d="M30 158c-30 10-43 35-47 62" fill="none" stroke="#f2ead8" stroke-width="24" stroke-linecap="round"/>
    <path d="M279 148c32-3 52 13 65 34" fill="none" stroke="#f2ead8" stroke-width="24" stroke-linecap="round"/>
    <path d="M96 270c-5 32-24 47-47 64" fill="none" stroke="#f2ead8" stroke-width="27" stroke-linecap="round"/>
    <path d="M206 270c18 25 39 38 67 43" fill="none" stroke="#f2ead8" stroke-width="27" stroke-linecap="round"/>
  </g>
  <text x="256" y="468" text-anchor="middle" font-family="system-ui,sans-serif" font-size="44" font-weight="900" fill="#fff">NEMO</text>
</svg>
